<svg xmlns="http://www.w3.org/2000/svg" version="1.1" xmlns:xlink="http://www.w3.org/1999/xlink" xmlns:svgjs="http://svgjs.dev/svgjs" width="2000" height="1500" viewBox="0 0 2000 1500"><rect width="2000" height="1500" fill="#0b022d"></rect><g transform="matrix(0.41339396444811904,0,0,0.41339396444811904,585.3453656223348,248.38709677419354)"><svg viewBox="0 0 205 248" data-background-color="#0b022d" preserveAspectRatio="xMidYMid meet" height="2419" width="2000" xmlns="http://www.w3.org/2000/svg" xmlns:xlink="http://www.w3.org/1999/xlink"><g id="tight-bounds" transform="matrix(1,0,0,1,0.31257995735609256,0.4000000000000057)"><svg viewBox="0 0 204.37484008528784 247.2" height="247.2" width="204.37484008528784"><g><svg viewBox="0 0 204.37484008528784 247.2" height="247.2" width="204.37484008528784"><g><svg viewBox="0 0 204.37484008528784 247.2" height="247.2" width="204.37484008528784"><g id="textblocktransform"><svg viewBox="0 0 204.37484008528784 247.2" height="247.2" width="204.37484008528784" id="textblock"><g><svg viewBox="0 0 204.37484008528784 247.2" height="247.2" width="204.37484008528784"><g transform="matrix(1,0,0,1,0,0)"><svg width="204.37484008528784" viewBox="0.66 -45.8 37.870000000000005 45.8" height="247.2" data-palette-color="#f7fff7"><path d="M5.22-29.44L5.22-29.44Q5.22-38.28 19.24-38.28L19.24-38.28Q24.49-38.28 28.96-35.69L28.96-35.69Q35.69-31.79 37.84-24.29L37.84-24.29Q38.53-21.85 38.53-19.19L38.53-19.19Q38.53-11.28 32.91-5.62L32.91-5.62Q29.35-2.05 24.41-0.68L24.41-0.68Q21.97 0 19.26 0L19.26 0Q13.87 0 9.31-2.8 4.76-5.59 2.37-10.16L2.37-10.16 3.44-10.74Q5.74-6.42 10.01-3.82 14.28-1.22 19.23-1.22 24.17-1.22 28.3-3.59 32.42-5.96 34.86-10.12 37.3-14.28 37.3-19.19L37.3-19.19Q37.3-24.07 34.86-28.15 32.42-32.23 28.28-34.64 24.15-37.06 19.24-37.06L19.24-37.06Q6.45-37.06 6.45-29.49L6.45-29.49Q6.45-26.51 8.81-23.68 11.18-20.85 11.18-17.24L11.18-17.24Q11.18-15.04 9.62-13.51 8.06-11.99 5.91-11.99L5.91-11.99Q3.74-11.99 2.2-13.53 0.66-15.06 0.66-17.24L0.66-17.24 1.88-17.24Q1.88-15.58 3.06-14.39 4.25-13.21 5.91-13.21L5.91-13.21Q7.59-13.21 8.78-14.39 9.96-15.58 9.96-17.15 9.96-18.73 9.61-19.8 9.25-20.87 8.73-21.73 8.2-22.58 7.59-23.34 6.98-24.1 6.45-24.95L6.45-24.95Q5.22-26.95 5.22-29.44ZM26.39-45.19L24.19-40.99 23.05-41.36 24.9-45.8 26.39-45.19ZM19.58-45.19L17.38-40.99 16.24-41.36 18.09-45.8 19.58-45.19Z" opacity="1" transform="matrix(1,0,0,1,0,0)" fill="#f7fff7" class="wordmark-text-0" data-fill-palette-color="primary" id="text-0"></path></svg></g></svg></g></svg></g></svg></g><g></g></svg></g><defs></defs></svg><rect width="204.37484008528784" height="247.2" fill="none" stroke="none" visibility="hidden"></rect></g></svg></g></svg>